<svg height="16" width="59" xmlns="http://www.w3.org/2000/svg"><g clip-rule="evenodd" fill-rule="evenodd"><path d="m13.237 2.09c-3.523.427-7.133 2.76-10.321 6.85l-.615.789-1.578-1.23.615-.789c3.385-4.342 7.427-7.094 11.66-7.605 4.281-.517 8.521 1.286 12.182 5.557l.016.018.014.02c3.145 4.043 6.43 6.83 9.745 7.85 3.222.99 6.638.362 10.27-2.816.196-.172.404-.364.625-.57.82-.764 1.838-1.71 3.245-2.475 1.831-.998 4.304-1.704 8.032-1.705h1v2h-1c-3.462 0-5.592.653-7.076 1.461-1.164.634-1.945 1.358-2.743 2.097-.25.232-.501.465-.767.697-4.066 3.558-8.186 4.449-12.174 3.222-3.89-1.196-7.483-4.356-10.72-8.515-3.325-3.87-6.94-5.274-10.41-4.855z"/><path d="m52.016 3.404a1 1 0 0 1 1.371-.343l5 3a1 1 0 0 1 .11 1.638l-5 4a1 1 0 1 1 -1.249-1.562l3.877-3.101-3.767-2.26a1 1 0 0 1 -.342-1.372z"/></g></svg>