<svg width="22" height="22" xmlns="http://www.w3.org/2000/svg">
  <path d="M20.279.5H2.034C1.198.5.519 1.18.519 2.014v17.972c0 .834.679 1.514 1.515 1.514h18.245c.836 0 1.52-.68 1.52-1.514V2.014A1.52 1.52 0 0020.279.5zM6.95 18.5H3.796V8.478h3.159V18.5H6.95zM5.373 7.11a1.818 1.818 0 01-1.829-1.805c0-.994.817-1.805 1.83-1.805 1.006 0 1.828.81 1.828 1.805 0 .998-.817 1.804-1.829 1.804zm13.4 11.39H15.62v-4.875c0-1.162-.024-2.658-1.639-2.658-1.643 0-1.895 1.266-1.895 2.574V18.5H8.931V8.478h3.026v1.369H12c.422-.788 1.453-1.617 2.987-1.617 3.192 0 3.786 2.076 3.786 4.776V18.5z"/>
</svg>
