<svg width="22" height="22" xmlns="http://www.w3.org/2000/svg"><path d="M19.091.5H2.371C1.112.5.09 1.508.09 2.75v16.5c0 1.242 1.021 2.25 2.28 2.25h16.72c1.259 0 2.28-1.008 2.28-2.25V2.75c0-1.242-1.021-2.25-2.28-2.25zm-2.323 7.444c.01.131.01.267.01.398 0 4.064-3.135 8.747-8.864 8.747a8.909 8.909 0 01-4.783-1.378c.252.028.494.037.75.037a6.3 6.3 0 003.867-1.312 3.114 3.114 0 01-2.912-2.133c.48.07.912.07 1.406-.056-1.425-.286-2.494-1.524-2.494-3.019v-.037c.414.23.898.37 1.406.389a3.083 3.083 0 01-1.02-1.108 3.036 3.036 0 01-.367-1.452c0-.572.152-1.097.423-1.551a8.885 8.885 0 006.422 3.215c-.441-2.086 1.14-3.778 3.04-3.778.898 0 1.706.37 2.276.97a6.154 6.154 0 001.976-.74 3.074 3.074 0 01-1.368 1.692 6.265 6.265 0 001.795-.478 6.51 6.51 0 01-1.563 1.594z"/></svg>