<svg width="24" height="24" stroke-width="1.5" fill="none" xmlns="http://www.w3.org/2000/svg" color="currentColor"><circle cx="12" cy="12" r="10" stroke="currentColor"/><path d="M7.63262 3.06689c1.35305.29044 2.36737 1.49336 2.36737 2.93318 0 1.65686-1.34314 3-3 3-1.54879 0-2.82346-1.17366-2.98314-2.6801M22 13.0505C21.3647 12.4022 20.4793 12 19.5 12c-1.933 0-3.5 1.567-3.5 3.5 0 1.7632 1.3039 3.2219 3 3.4646" stroke="currentColor"/><path d="m14.5 8.51.01-.01111M10 17c1.1046 0 2-.8954 2-2s-.8954-2-2-2c-1.10457 0-2 .8954-2 2s.89543 2 2 2Z" stroke="currentColor" stroke-linecap="round" stroke-linejoin="round"/></svg>