<svg fill="none" height="18" width="138" xmlns="http://www.w3.org/2000/svg"><path clip-rule="evenodd" d="M15.388 2.992C11.512 3 7.486 5.202 2.707 9.981L2 10.688.586 9.273l.707-.707C6.193 3.666 10.706 1 15.384.992c4.68-.008 9.208 2.643 14.139 7.574 4.813 4.813 8.819 7.031 12.674 7.04 3.854.009 7.878-2.19 12.728-7.04l.707.707-.707-.707c4.9-4.9 9.413-7.566 14.091-7.574 4.68-.008 9.208 2.643 14.139 7.574 4.812 4.813 8.819 7.031 12.674 7.04 3.854.009 7.878-2.19 12.728-7.04 4.9-4.9 9.413-7.566 14.091-7.574 4.679-.008 9.208 2.643 14.139 7.574l.707.707-1.414 1.415-.707-.707c-4.807-4.807-8.847-6.996-12.721-6.989-3.876.007-7.902 2.21-12.681 6.989-4.965 4.965-9.48 7.635-14.146 7.625-4.665-.01-9.16-2.7-14.084-7.625-4.807-4.807-8.847-6.996-12.721-6.989-3.876.007-7.902 2.21-12.681 6.989-4.965 4.965-9.48 7.635-14.146 7.625-4.665-.01-9.159-2.7-14.084-7.625-4.807-4.807-8.847-6.996-12.721-6.989z" fill="#005385" fill-rule="evenodd"/></svg>
