<svg xmlns="http://www.w3.org/2000/svg" width="841.95" height="780.8" viewBox="0 0 222.76 206.59"><g fill="#36acb8"><path d="M23.32 55.99c-1.86-.3-7.55 13.35-3.54 34.1a71.46 71.46 0 0013.8 29.9c6.97 9.01 15.22 15.89 22.86 21.03 17.62 11.88 31.6 15.8 32.45 14.06.84-1.73-11.6-8.7-27.2-21.21-6.7-5.38-14.07-12.02-20.2-19.98l-.78-1.04A76.65 76.65 0 0128.3 88.07c-2.54-8.78-3.13-17.22-3.48-22.75-.36-5.73-.57-9.18-1.5-9.33zM20.56 12.1c.82 1.8 9.92-1.32 22.53-2.22a59.96 59.96 0 0117.52 1.16 56.44 56.44 0 0115.58 6.34c9.73 5.64 15.68 11.53 17.12 10.37 1.44-1.16-1.97-9.34-12.2-17.5A47.48 47.48 0 0061.05.91a49.71 49.71 0 00-19.2.05c-14.32 2.84-22.1 9.33-21.29 11.13zM94.34 29.83c-1.75 2.13 19.78 22.28 45.34 47.78 25.56 25.5 45.35 47.21 47.51 45.5 1.08-.87-2.5-7.49-9.6-17.2-7.25-9.87-17.71-22.27-30.85-35.38-26.07-26.02-50.7-42.76-52.4-40.7zM95.24 157.85c.12 1.38 3.96 2.4 10.23 2.25a61.26 61.26 0 0024.16-5.89c8.96-4.29 15.34-10.28 19.13-15.45 3.77-5.13 4.74-9 3.7-9.77-1.11-.8-4.14 1.47-8.71 4.84-4.74 3.49-10.67 7.68-18.42 11.35l-.27.13c-7.62 3.62-15.26 5.95-20.79 7.81-5.57 1.87-9.16 3.36-9.03 4.73zM113.01 164c-1.18-.83-5.94 3.83-10.62 10.4-4.68 6.59-7.51 12.6-6.33 13.45 1.18.84 5.94-3.82 10.62-10.4 4.68-6.58 7.52-12.6 6.33-13.44zM85.88 161.12c-.94-1.02-7.99 3.95-15.73 11.09s-13.26 13.76-12.32 14.78c.94 1.02 7.98-3.95 15.73-11.09 7.74-7.14 13.26-13.76 12.32-14.78zM54.69 193.15c-1.16-.39-2.7 1.08-3.44 3.28-.73 2.2-.4 4.3.77 4.69 1.16.39 2.7-1.08 3.44-3.28.73-2.2.39-4.3-.77-4.69zM87.92 191.84c-1.09-.84-4.49 1.75-7.58 5.77-3.1 4.03-4.71 7.98-3.62 8.82 1.1.84 4.49-1.75 7.58-5.78 3.1-4.02 4.72-7.97 3.62-8.81zM95.19 192.82c-1.76.38-2.78 2.6-2.27 4.96.5 2.36 2.34 3.98 4.1 3.6 1.76-.38 2.78-2.6 2.27-4.96-.5-2.37-2.34-3.98-4.1-3.6zM82.2 190.01c-.2-.54-1.05-.78-2.22-.86a18.4 18.4 0 00-4.62.39l-.37.08c-3.83.84-6.68 2.6-6.28 3.83.34 1.03 3.54 1.21 7.21.4l.38-.1c1.8-.42 3.34-.99 4.48-1.73 1.1-.71 1.62-1.47 1.42-2zM48.99 193c-.6-1.3-4.88-.4-9.38 2.27-4.38 2.6-7.33 5.65-6.73 6.76.68 1.28 4.85.1 9.24-2.52 4.27-2.54 7.39-5.35 6.87-6.5zM24.38 52.8c1.33.24 2.9-1.16 4.33-3.6A25.54 25.54 0 0032.03 37c.1-3.07-.7-6.08-2.16-8.55-3.54-5.59-7.86-4.7-8.54-3.64-.98 1.51.63 4.3.73 7 .17 1.4.06 2.76 0 4.9l-.04.91c-.21 3.78-.58 6.92-.24 10.1.32 2.92 1.22 4.84 2.6 5.08zM158.89 130.4c-.81 1.04 1.26 4.46 6.21 8.4 5.06 4.02 12.5 8.06 21.91 10.63l.18.05a83.87 83.87 0 0023.89 2.92c6.14-.2 9.94-1.19 10.06-2.56.12-1.38-3.48-2.9-9.25-4.47-7.26-2-14.8-3.55-22.07-5.54l-.16-.04a204.01 204.01 0 01-21.01-7.08c-5.34-2.06-8.9-3.43-9.76-2.32zM191.08 126.64c-.19.73 1.63 1.8 4.45 3.3 3.57 1.91 5.92 3.1 10.86 5.96 8.4 4.87 15.38 9.21 16.3 8.05.8-1.02-4.54-7.47-13.63-12.69a42.15 42.15 0 00-12.28-4.86c-3.36-.68-5.53-.46-5.7.24z"/><path style="line-height:normal;font-variant-ligatures:normal;font-variant-position:normal;font-variant-caps:normal;font-variant-numeric:normal;font-variant-alternates:normal;font-variant-east-asian:normal;font-feature-settings:normal;font-variation-settings:normal;text-indent:0;text-align:start;text-decoration-line:none;text-decoration-style:solid;text-decoration-color:#000;text-transform:none;text-orientation:mixed;white-space:normal;shape-padding:0;shape-margin:0;inline-size:0;isolation:auto;mix-blend-mode:normal;solid-color:#000;solid-opacity:1" d="M48.95 21.42a4.56 4.56 0 109.11 0 4.56 4.56 0 00-9.11 0z" color="#000" font-weight="400" font-family="sans-serif" overflow="visible"/><path style="line-height:normal;font-variant-ligatures:normal;font-variant-position:normal;font-variant-caps:normal;font-variant-numeric:normal;font-variant-alternates:normal;font-variant-east-asian:normal;font-feature-settings:normal;font-variation-settings:normal;text-indent:0;text-align:start;text-decoration-line:none;text-decoration-style:solid;text-decoration-color:#000;text-transform:none;text-orientation:mixed;white-space:normal;shape-padding:0;shape-margin:0;inline-size:0;isolation:auto;mix-blend-mode:normal;solid-color:#000;solid-opacity:1" d="M53.5 20.83c-.37 0-.58.22-.58.59s.21.59.59.59c.37 0 .58-.22.58-.6 0-.36-.21-.58-.58-.58z" color="#000" font-weight="400" font-family="sans-serif" overflow="visible"/><path style="line-height:normal;font-variant-ligatures:normal;font-variant-position:normal;font-variant-caps:normal;font-variant-numeric:normal;font-variant-alternates:normal;font-variant-east-asian:normal;font-feature-settings:normal;font-variation-settings:normal;text-indent:0;text-align:start;text-decoration-line:none;text-decoration-style:solid;text-decoration-color:#000;text-transform:none;text-orientation:mixed;white-space:normal;shape-padding:0;shape-margin:0;inline-size:0;isolation:auto;mix-blend-mode:normal;solid-color:#000;solid-opacity:1" d="M53.5 16.46a5 5 0 014.96 4.96 5 5 0 01-4.95 4.96 5 5 0 01-4.96-4.96 5 5 0 014.96-4.96z" color="#000" font-weight="400" font-family="sans-serif" overflow="visible"/><path d="M25.22 19.36c.36-1.85-4.99-4.46-11.95-5.82-6.95-1.36-12.89-.97-13.25.88-.37 1.86 4.99 4.46 11.94 5.83 6.96 1.36 12.9.96 13.26-.89z"/></g></svg>