<svg xmlns="http://www.w3.org/2000/svg" id="Layer_1" viewBox="0 0 121.2 118.4"><style>.st0{fill-rule:evenodd;clip-rule:evenodd;fill:#191717;}</style><path d="M60.6.4C27.3.4.2 27.4.2 60.8.2 87.5 17.5 110 41.5 118c3 .7 4-1.2 4-2.8V104c-16.8 3.7-20.3-7-20.3-7-2.7-7-6.7-9-6.7-9-5.5-3.6.4-3.6.4-3.6 6 .4 9 6.2 9 6.2 5.2 9.2 14 6.6 17.4 5 .5-4 2-6.6 3.8-8C36 86 22 80.6 22 57.6c0-6.6 2.4-12 6.2-16-.6-1.7-2.7-8 .6-16 0 0 5-1.8 16.4 6 4.8-1.3 10-2 15-2 5.2 0 10.4.7 15.2 2 11.5-7.8 16.6-6 16.6-6 3.3 8 1.2 14.3.6 16 3.8 4 6 9.4 6 16C99 81 85 86 71.6 87.6c2.2 2 4 5.4 4 11v16.7c0 1.6 1 3.5 4 3 24-8 41.4-30.7 41.4-57.4 0-34-27-61-60.5-61z" class="st0"/></svg>