<svg width="256" height="250" viewBox="0 0 256 250" xmlns="http://www.w3.org/2000/svg" preserveAspectRatio="xMidYMid"><path d="M128 0C57.3 0 0 57.3 0 128c0 56.6 36.7 104.5 87.5 121.5 6.4 1 8.8-2.8 8.8-6.2 0-3 0-13-.2-23.8-35.5 7.7-43-15-43-15-5.8-15-14.2-19-14.2-19-11.6-7.8.8-7.6.8-7.6 13 .8 19.7 13 19.7 13 11.4 19.6 30 14 37.2 10.7 1.2-8.3 4.5-14 8-17-28.3-3.4-58.2-14.3-58.2-63.4 0-14 5-25.4 13.2-34.3-1.3-3.3-5.7-16.3 1.3-34 0 0 10.7-3.4 35.2 13.2 10.2-2.8 21-4.3 32-4.3s21.8 1.4 32 4.2c24.5-16.6 35.2-13 35.2-13 7 17.5 2.6 30.5 1.3 33.8 8.2 9 13.2 20.3 13.2 34.3 0 49.2-30 60-58.5 63.2 4.6 4 8.7 11.7 8.7 23.7 0 17-.3 31-.3 35 0 3.5 2.4 7.5 8.8 6.2 51-17 87.5-65 87.5-121.4C256 57.3 198.7 0 128 0zM48 182.3c-.3.7-1.3 1-2.3.4-1-.4-1.4-1.3-1-2 .2-.5 1.2-.7 2-.3 1 .4 1.6 1.3 1.2 2zM54 188c-.6.5-1.8.3-2.6-.6-.8-1-1-2-.4-2.7.7-.6 1.8-.3 2.7.6.7 1 1 2 .2 2.7zm4.4 7c-.8.7-2 .2-3-1-.7-1-.7-2.5 0-3 1-.6 2.2 0 3 1 .8 1.2.8 2.6 0 3zm7.3 8.5c-.8.7-2.3.5-3.4-.5-1-1-1.5-2.5-.8-3.3.8-.8 2.3-.5 3.4.5 1 1 1.4 2.5.7 3.3zm9.3 2.8c-.3 1-1.7 1.4-3.2 1-1.3-.4-2.3-1.6-2-2.6.3-1 1.7-1.5 3.2-1 1.5.4 2.4 1.6 2 2.6zm10.7 1.2c0 1-1 2-2.7 2-1.5 0-2.7-1-2.8-2 0-1 1.2-2 2.8-2 1.5 0 2.7 1 2.7 2zm10.6-.4c.2 1-1 2.2-2.4 2.4-1.5.3-2.8-.3-3-1.3-.2-1 1-2 2.3-2.3 1.6-.3 3 .3 3 1.4z" fill="#161614"/></svg>