<svg xmlns="http://www.w3.org/2000/svg" viewBox="0 0 56.4 48"><path fill="#231f20" d="M53 38.4h-.4v-1h.7c.4 0 .8 0 .8.4 0 .6 0 .6-1 .6zm.7.3c.6 0 1-.3 1-1 0-.5-.5-.8-1.3-.8H52v3h.6v-1.6h.6l1 1.4h.4l-1-1.6"/><path fill="#231f20" d="M53.2 41.3c-1.5 0-2.7-1.2-2.7-2.7 0-1.6 1.2-2.8 2.7-2.8 1.5 0 2.7 1.2 2.7 2.8 0 1.5-1.6 2.7-3 2.7zm0-6c-1.8 0-3.2 1.5-3.2 3.3 0 1.7 1.4 3 3.2 3 1.8 0 3.2-1.3 3.2-3 0-1.8-1.4-3.2-3.2-3.2"/><path fill="#0977b6" d="M44.4 0h-41C1.7 0 0 1.5 0 3.5v41c0 2 1.6 3.5 3.5 3.5h41c2 0 3.5-1.6 3.5-3.5v-41c0-2-1.6-3.5-3.6-3.5"/><path fill="#fff" d="M10.7 6.6c2.3 0 4 2 4 4 0 2.4-1.7 4.3-4 4.3s-4.2-2-4.2-4.6c0-2.2 2-4 4.2-4M7 18h7.2v23h-7V18m11.5 0h6.8v3c1-1.7 3.4-3.6 7-3.6 7 0 8.4 4.8 8.4 11V41h-7.5V29.6c0-2.7 0-6-3.7-6s-4.3 2.8-4.3 5.8V41h-7V18"/></svg>