<svg xmlns="http://www.w3.org/2000/svg" viewBox="0 0 400 400"><style>.st0{fill:#1DA1F2;} .st1{fill:#FFFFFF;}</style><circle id="Dark_Blue" cx="200" cy="200" r="200" class="st0"/><path id="Logo__x2014__FIXED" d="M163.4 305.5c88.7 0 137.2-73.5 137.2-137.2V162c9.3-6.7 17.5-15.2 24-25-8.6 4-18 6.5-27.7 7.7 10-6 17.2-15.4 21-26.7-9.5 5.5-19.8 9.5-30.8 11.7-8.8-9.4-21.3-15.2-35.2-15.2-26.5 0-48 21.6-48 48.2 0 3.8.4 7.5 1.3 11-40-2-75.6-21.2-99.4-50.4-4 7-6.7 15.4-6.7 24.2 0 16.7 8.5 31.5 21.5 40-8 0-15.4-2.3-22-6v.7c0 23.4 16.7 42.8 38.8 47.3-4 1-8.5 1.7-13 1.7-3 0-6-.3-9-1 6 19.3 24 33.2 45 33.6-16.5 13-37.3 20.6-60 20.6-4 0-7.6-.2-11.4-.7 21 13.8 46.5 21.8 73.7 21.8" class="st1"/></svg>